<?xml version="1.0" encoding="UTF-8"?>
<svg xmlns="http://www.w3.org/2000/svg" xmlns:xlink="http://www.w3.org/1999/xlink" width="px" height="px" viewBox="0 0 224 256" version="1.1">
<g id="surface1">
<path style=" stroke:none;fill-rule:nonzero;fill:rgb(0%,0%,0%);fill-opacity:1;" d="M 32 16 C 14.351562 16 0 30.351562 0 48 L 0 208 C 0 225.648438 14.351562 240 32 240 L 81.101562 240 L 81.101562 167.101562 L 54.699219 167.101562 L 54.699219 128 L 81.101562 128 L 81.101562 111.148438 C 81.101562 67.601562 100.800781 47.398438 143.601562 47.398438 C 151.699219 47.398438 165.699219 49 171.449219 50.601562 L 171.449219 86 C 168.449219 85.699219 163.199219 85.5 156.648438 85.5 C 135.648438 85.5 127.550781 93.449219 127.550781 114.101562 L 127.550781 128 L 169.351562 128 L 162.148438 167.101562 L 127.5 167.101562 L 127.5 240 L 192 240 C 209.648438 240 224 225.648438 224 208 L 224 48 C 224 30.351562 209.648438 16 192 16 Z M 32 16 "/>
</g>
</svg>
