<?xml version="1.0" encoding="UTF-8"?>
<svg xmlns="http://www.w3.org/2000/svg" xmlns:xlink="http://www.w3.org/1999/xlink" width="px" height="px" viewBox="0 0 224 256" version="1.1">
<g id="surface1">
<path style=" stroke:none;fill-rule:nonzero;fill:rgb(0%,0%,0%);fill-opacity:1;" d="M 97.199219 105.851562 C 84.953125 114.039062 81.664062 130.601562 89.851562 142.851562 C 98.039062 155.097656 114.601562 158.386719 126.851562 150.199219 C 139.097656 142.011719 142.386719 125.445312 134.199219 113.199219 C 126.011719 100.953125 109.445312 97.664062 97.199219 105.851562 Z M 168.351562 71.648438 C 165.75 69.050781 162.601562 67 159.148438 65.648438 C 150.101562 62.101562 130.351562 62.25 117.601562 62.398438 C 115.550781 62.398438 113.648438 62.449219 112 62.449219 C 110.351562 62.449219 108.398438 62.449219 106.300781 62.398438 C 93.550781 62.25 73.898438 62.050781 64.851562 65.648438 C 61.398438 67 58.300781 69.050781 55.648438 71.648438 C 53 74.25 51 77.398438 49.648438 80.851562 C 46.101562 89.898438 46.300781 109.699219 46.398438 122.449219 C 46.398438 124.5 46.449219 126.398438 46.449219 128 C 46.449219 129.601562 46.449219 131.5 46.398438 133.550781 C 46.300781 146.300781 46.101562 166.101562 49.648438 175.148438 C 51 178.601562 53.050781 181.699219 55.648438 184.351562 C 58.25 187 61.398438 189 64.851562 190.351562 C 73.898438 193.898438 93.648438 193.75 106.398438 193.601562 C 108.449219 193.601562 110.351562 193.550781 112 193.550781 C 113.648438 193.550781 115.601562 193.550781 117.699219 193.601562 C 130.449219 193.75 150.101562 193.949219 159.148438 190.351562 C 162.601562 189 165.699219 186.949219 168.351562 184.351562 C 171 181.75 173 178.601562 174.351562 175.148438 C 177.949219 166.148438 177.75 146.449219 177.601562 133.648438 C 177.601562 131.550781 177.550781 129.601562 177.550781 127.949219 C 177.550781 126.300781 177.550781 124.398438 177.601562 122.25 C 177.75 109.5 177.949219 89.800781 174.351562 80.75 C 173 77.300781 170.949219 74.199219 168.351562 71.550781 Z M 134.800781 93.898438 C 153.632812 106.492188 158.691406 131.96875 146.101562 150.800781 C 133.507812 169.632812 108.03125 174.691406 89.199219 162.101562 C 70.367188 149.523438 65.296875 124.058594 77.875 105.226562 C 90.453125 86.390625 115.917969 81.320312 134.75 93.898438 Z M 149.398438 93.25 C 147.851562 92.199219 146.601562 90.699219 145.851562 88.949219 C 145.101562 87.199219 144.949219 85.300781 145.300781 83.398438 C 145.648438 81.5 146.601562 79.851562 147.898438 78.5 C 149.199219 77.148438 150.949219 76.25 152.800781 75.898438 C 154.648438 75.550781 156.601562 75.699219 158.351562 76.449219 C 160.101562 77.199219 161.601562 78.398438 162.648438 79.949219 C 163.699219 81.5 164.25 83.351562 164.25 85.25 C 164.25 86.5 164 87.75 163.550781 88.898438 C 163.101562 90.050781 162.351562 91.101562 161.5 92 C 160.648438 92.898438 159.550781 93.601562 158.398438 94.101562 C 157.25 94.601562 156 94.851562 154.75 94.851562 C 152.851562 94.851562 151 94.300781 149.449219 93.25 Z M 224 48 C 224 30.351562 209.648438 16 192 16 L 32 16 C 14.351562 16 0 30.351562 0 48 L 0 208 C 0 225.648438 14.351562 240 32 240 L 192 240 C 209.648438 240 224 225.648438 224 208 Z M 178.5 194.5 C 169.148438 203.851562 157.800781 206.800781 145 207.449219 C 131.800781 208.199219 92.199219 208.199219 79 207.449219 C 66.199219 206.800781 54.851562 203.851562 45.5 194.5 C 36.148438 185.148438 33.199219 173.800781 32.601562 161 C 31.851562 147.800781 31.851562 108.199219 32.601562 95 C 33.25 82.199219 36.148438 70.851562 45.5 61.5 C 54.851562 52.148438 66.25 49.199219 79 48.601562 C 92.199219 47.851562 131.800781 47.851562 145 48.601562 C 157.800781 49.25 169.148438 52.148438 178.5 61.5 C 187.851562 70.851562 190.800781 82.199219 191.398438 95 C 192.148438 108.148438 192.148438 147.699219 191.398438 160.949219 C 190.75 173.75 187.851562 185.101562 178.5 194.449219 Z M 178.5 194.5 "/>
</g>
</svg>
