<?xml version="1.0" encoding="UTF-8"?>
<svg xmlns="http://www.w3.org/2000/svg" xmlns:xlink="http://www.w3.org/1999/xlink" width="px" height="px" viewBox="0 0 224 256" version="1.1">
<g id="surface1">
<path style=" stroke:none;fill-rule:nonzero;fill:rgb(0%,0%,0%);fill-opacity:1;" d="M 208 16 L 15.949219 16 C 7.148438 16 0 23.25 0 32.148438 L 0 223.851562 C 0 232.75 7.148438 240 15.949219 240 L 208 240 C 216.800781 240 224 232.75 224 223.851562 L 224 32.148438 C 224 23.25 216.800781 16 208 16 Z M 67.699219 208 L 34.5 208 L 34.5 101.101562 L 67.75 101.101562 L 67.75 208 Z M 51.101562 86.5 C 40.449219 86.5 31.851562 77.851562 31.851562 67.25 C 31.851562 56.648438 40.449219 48 51.101562 48 C 61.699219 48 70.351562 56.648438 70.351562 67.25 C 70.351562 77.898438 61.75 86.5 51.101562 86.5 Z M 192.148438 208 L 158.949219 208 L 158.949219 156 C 158.949219 143.601562 158.699219 127.648438 141.699219 127.648438 C 124.398438 127.648438 121.75 141.148438 121.75 155.101562 L 121.75 208 L 88.550781 208 L 88.550781 101.101562 L 120.398438 101.101562 L 120.398438 115.699219 L 120.851562 115.699219 C 125.300781 107.300781 136.148438 98.449219 152.300781 98.449219 C 185.898438 98.449219 192.148438 120.601562 192.148438 149.398438 Z M 192.148438 208 "/>
</g>
</svg>
